HIERARCHY
ROOT Hips
{
    OFFSET   0.000000   0.000000   0.000000
    CHANNELS 6 Xposition Yposition Zposition Zrotation Xrotation Yrotation
    JOINT Chest
    {
        OFFSET   0.000000   8.007230   0.000000
        CHANNELS 3 Zrotation Xrotation Yrotation
        JOINT Chest2
        {
            OFFSET   0.000000  22.077100   0.000000
            CHANNELS 3 Zrotation Xrotation Yrotation
            JOINT Neck
            {
                OFFSET   0.000000  23.255100   0.000000
                CHANNELS 3 Zrotation Xrotation Yrotation
                JOINT Head
                {
                    OFFSET   0.000000  14.370100   1.956600
                    CHANNELS 3 Zrotation Xrotation Yrotation
                    End Site
                    {
                        OFFSET   0.000000  19.566000   0.000000
                    }
                }
            }
            JOINT LeftCollar
            {
                OFFSET   3.911900  19.017000  -0.467063
                CHANNELS 3 Zrotation Xrotation Yrotation
                JOINT LeftShoulder
                {
                    OFFSET  10.383700   0.000000   0.000000
                    CHANNELS 3 Zrotation Xrotation Yrotation
                    JOINT LeftElbow
                    {
                        OFFSET  26.662100   0.001193   0.000980
                        CHANNELS 3 Zrotation Xrotation Yrotation
                        JOINT LeftWrist
                        {
                            OFFSET  28.869000  -0.000059  -0.000082
                            CHANNELS 3 Zrotation Xrotation Yrotation
                            JOINT LeftFinger0
                            {
                                OFFSET   2.044650  -2.323450   3.252850
                                CHANNELS 3 Zrotation Xrotation Yrotation
                                JOINT LeftFinger01
                                {
                                    OFFSET   3.088130   0.000000   0.000000
                                    CHANNELS 3 Zrotation Xrotation Yrotation
                                    JOINT LeftFinger02
                                    {
                                        OFFSET   2.639460   0.000000   0.000000
                                        CHANNELS 3 Zrotation Xrotation Yrotation
                                        End Site
                                        {
                                            OFFSET   2.582190   0.000000   0.000000
                                        }
                                    }
                                }
                            }
                            JOINT LeftFinger1
                            {
                                OFFSET   8.364480   0.000000   3.252850
                                CHANNELS 3 Zrotation Xrotation Yrotation
                                JOINT LeftFinger11
                                {
                                    OFFSET   4.646930   0.000000   0.000000
                                    CHANNELS 3 Zrotation Xrotation Yrotation
                                    JOINT LeftFinger12
                                    {
                                        OFFSET   2.323470   0.000000   0.000000
                                        CHANNELS 3 Zrotation Xrotation Yrotation
                                        End Site
                                        {
                                            OFFSET   2.273050   0.000000   0.000000
                                        }
                                    }
                                }
                            }
                            JOINT LeftFinger2
                            {
                                OFFSET   8.364490   0.000016   1.078090
                                CHANNELS 3 Zrotation Xrotation Yrotation
                                JOINT LeftFinger21
                                {
                                    OFFSET   5.111610   0.000000   0.000000
                                    CHANNELS 3 Zrotation Xrotation Yrotation
                                    JOINT LeftFinger22
                                    {
                                        OFFSET   2.788150   0.000016   0.000000
                                        CHANNELS 3 Zrotation Xrotation Yrotation
                                        End Site
                                        {
                                            OFFSET   2.727660   0.000000   0.000000
                                        }
                                    }
                                }
                            }
                            JOINT LeftFinger3
                            {
                                OFFSET   7.899780   0.000015  -1.078090
                                CHANNELS 3 Zrotation Xrotation Yrotation
                                JOINT LeftFinger31
                                {
                                    OFFSET   4.646930   0.000000   0.000000
                                    CHANNELS 3 Zrotation Xrotation Yrotation
                                    JOINT LeftFinger32
                                    {
                                        OFFSET   2.323470   0.000000   0.000000
                                        CHANNELS 3 Zrotation Xrotation Yrotation
                                        End Site
                                        {
                                            OFFSET   2.273050   0.000000   0.000000
                                        }
                                    }
                                }
                            }
                            JOINT LeftFinger4
                            {
                                OFFSET   7.435090   0.000000  -3.252850
                                CHANNELS 3 Zrotation Xrotation Yrotation
                                JOINT LeftFinger41
                                {
                                    OFFSET   3.717550   0.000000   0.000000
                                    CHANNELS 3 Zrotation Xrotation Yrotation
                                    JOINT LeftFinger42
                                    {
                                        OFFSET   1.858770   0.000000   0.000000
                                        CHANNELS 3 Zrotation Xrotation Yrotation
                                        End Site
                                        {
                                            OFFSET   1.818440   0.000000   0.000000
                                        }
                                    }
                                }
                            }
                        }
                    }
                }
            }
            JOINT RightCollar
            {
                OFFSET  -3.911910  19.017000  -0.467062
                CHANNELS 3 Zrotation Xrotation Yrotation
                JOINT RightShoulder
                {
                    OFFSET -10.383700   0.000014   0.000000
                    CHANNELS 3 Zrotation Xrotation Yrotation
                    JOINT RightElbow
                    {
                        OFFSET -26.662100   0.001225   0.001091
                        CHANNELS 3 Zrotation Xrotation Yrotation
                        JOINT RightWrist
                        {
                            OFFSET -28.869000  -0.000020  -0.000085
                            CHANNELS 3 Zrotation Xrotation Yrotation
                            JOINT RightFinger0
                            {
                                OFFSET  -2.044650  -2.323490   3.252850
                                CHANNELS 3 Zrotation Xrotation Yrotation
                                JOINT RightFinger01
                                {
                                    OFFSET  -3.088130   0.000000   0.000000
                                    CHANNELS 3 Zrotation Xrotation Yrotation
                                    JOINT RightFinger02
                                    {
                                        OFFSET  -2.639460   0.000000   0.000000
                                        CHANNELS 3 Zrotation Xrotation Yrotation
                                        End Site
                                        {
                                            OFFSET  -2.582190   0.000000   0.000000
                                        }
                                    }
                                }
                            }
                            JOINT RightFinger1
                            {
                                OFFSET  -8.364480   0.000000   3.252850
                                CHANNELS 3 Zrotation Xrotation Yrotation
                                JOINT RightFinger11
                                {
                                    OFFSET  -4.646930   0.000000   0.000000
                                    CHANNELS 3 Zrotation Xrotation Yrotation
                                    JOINT RightFinger12
                                    {
                                        OFFSET  -2.323470   0.000000   0.000000
                                        CHANNELS 3 Zrotation Xrotation Yrotation
                                        End Site
                                        {
                                            OFFSET  -2.273050   0.000000   0.000000
                                        }
                                    }
                                }
                            }
                            JOINT RightFinger2
                            {
                                OFFSET  -8.364480   0.000000   1.078090
                                CHANNELS 3 Zrotation Xrotation Yrotation
                                JOINT RightFinger21
                                {
                                    OFFSET  -5.111620   0.000000   0.000000
                                    CHANNELS 3 Zrotation Xrotation Yrotation
                                    JOINT RightFinger22
                                    {
                                        OFFSET  -2.788160   0.000000   0.000000
                                        CHANNELS 3 Zrotation Xrotation Yrotation
                                        End Site
                                        {
                                            OFFSET  -2.727660   0.000000   0.000000
                                        }
                                    }
                                }
                            }
                            JOINT RightFinger3
                            {
                                OFFSET  -7.899780   0.000000  -1.078090
                                CHANNELS 3 Zrotation Xrotation Yrotation
                                JOINT RightFinger31
                                {
                                    OFFSET  -4.646930   0.000000   0.000000
                                    CHANNELS 3 Zrotation Xrotation Yrotation
                                    JOINT RightFinger32
                                    {
                                        OFFSET  -2.323470   0.000000   0.000000
                                        CHANNELS 3 Zrotation Xrotation Yrotation
                                        End Site
                                        {
                                            OFFSET  -2.273050   0.000000   0.000000
                                        }
                                    }
                                }
                            }
                            JOINT RightFinger4
                            {
                                OFFSET  -7.435090   0.000000  -3.252850
                                CHANNELS 3 Zrotation Xrotation Yrotation
                                JOINT RightFinger41
                                {
                                    OFFSET  -3.717550   0.000000   0.000000
                                    CHANNELS 3 Zrotation Xrotation Yrotation
                                    JOINT RightFinger42
                                    {
                                        OFFSET  -1.858760   0.000000   0.000000
                                        CHANNELS 3 Zrotation Xrotation Yrotation
                                        End Site
                                        {
                                            OFFSET  -1.818440   0.000000   0.000000
                                        }
                                    }
                                }
                            }
                        }
                    }
                }
            }
        }
    }
    JOINT LeftHip
    {
        OFFSET   9.783030   0.000000   0.000000
        CHANNELS 3 Zrotation Xrotation Yrotation
        JOINT LeftKnee
        {
            OFFSET   0.000063 -41.789100   0.000608
            CHANNELS 3 Zrotation Xrotation Yrotation
            JOINT LeftAnkle
            {
                OFFSET   0.000048 -41.133200  -0.000184
                CHANNELS 3 Zrotation Xrotation Yrotation
                JOINT LeftToe
                {
                    OFFSET   0.000000  -6.358960  14.674500
                    CHANNELS 3 Zrotation Xrotation Yrotation
                    End Site
                    {
                        OFFSET   0.000000   0.000000   3.913200
                    }
                }
            }
        }
    }
    JOINT RightHip
    {
        OFFSET  -9.783030   0.000000   0.000000
        CHANNELS 3 Zrotation Xrotation Yrotation
        JOINT RightKnee
        {
            OFFSET   0.000071 -41.789100   0.001239
            CHANNELS 3 Zrotation Xrotation Yrotation
            JOINT RightAnkle
            {
                OFFSET   0.000037 -41.133200  -0.000166
                CHANNELS 3 Zrotation Xrotation Yrotation
                JOINT RightToe
                {
                    OFFSET   0.000000  -6.358960  14.674500
                    CHANNELS 3 Zrotation Xrotation Yrotation
                    End Site
                    {
                        OFFSET   0.000000   0.000000   3.913200
                    }
                }
            }
        }
    }
}
MOTION
Frames: 6
Frame Time:   0.016667
  2.032410  89.497000   2.772840  -4.258400  -9.844390  -5.549800   0.641688   6.022940   1.854240   1.094990  12.063300   3.670900   1.329380  -0.976218   0.031291   2.183600  -1.976450   2.257000  -5.783550   0.715309  -1.028630 -69.316400  16.977400  -2.848170   0.086589   0.343124 -24.352500  17.449300 -15.024000   9.139480  41.423000  36.046300 -63.581200 -31.740800  -0.003355   0.007577 -10.865200  -0.004370   0.003325 -30.599100   5.041180  -8.451700 -25.340600  -0.009986  -0.001600 -17.738400  -0.003428   0.003774 -28.238000  -1.836150   3.413460 -34.201600  -0.000478  -0.003342 -22.778300  -0.009738  -0.003736 -28.193400  -1.832700   3.415310 -33.726200  -0.008213  -0.007744 -22.461600  -0.001591  -0.007143 -31.005400  -1.998580   3.321040 -46.595000  -0.009804  -0.008249 -31.032300   0.005190  -0.005887  11.721000   1.922950   5.940410  65.649400  16.106700  -2.930050  -5.481650  -1.820410  20.771300  -8.253400  -9.830750   2.951040 -39.735900  31.110100  59.012600  29.827900   0.011751  -0.006620   9.925380   0.006861  -0.000890  32.003200   8.817460  13.781400  27.057900  -0.002220  -0.000376  18.940600  -0.007095  -0.001209  28.663700   2.201820   4.021750  39.753100  -0.005829  -0.004695  26.475600  -0.001678  -0.001442  28.121700   0.709508   1.327290  32.887300  -0.003073  -0.006048  21.902900  -0.003728  -0.007260  37.281400  -0.323706  -0.425218  55.923900  -0.000719  -0.000597  37.245300   0.000203   0.000966   2.680350  13.802700   5.427980   0.724291   0.389107   8.038430  -1.532890  -5.153980   3.515830  -0.000000   0.000000   0.000000   1.772890  12.013300  -4.441060  -0.346893   2.050890  -7.791710   0.325825  -4.692140   2.909800  -0.000000   0.000000   0.000000
  2.026480  89.497000   2.778170  -4.257070  -9.844500  -5.543470   0.641897   6.023460   1.854390   1.095390  12.064400   3.671170   1.329410  -0.976230   0.031274   2.183830  -1.976450   2.256840  -5.788370   0.709060  -1.027260 -69.344600  16.987500  -2.834140   0.070126   0.340087 -24.324700  17.433400 -15.006500   9.161510  41.415400  36.038800 -63.567200 -31.742200  -0.003349   0.007579 -10.868100  -0.004362   0.003328 -30.592700   5.037600  -8.447930 -25.335000  -0.009983  -0.001589 -17.734500  -0.003426   0.003783 -28.237500  -1.840400   3.421460 -34.196100  -0.000465  -0.003339 -22.774600  -0.009738  -0.003735 -28.192900  -1.837050   3.423260 -33.733900  -0.008203  -0.007733 -22.466800  -0.001591  -0.007134 -31.000600  -2.002980   3.328960 -46.588300  -0.009807  -0.008241 -31.027800   0.005187  -0.005879  11.723500   1.903880   5.944630  65.655000  16.124000  -2.946920  -5.475080  -1.807260  20.751000  -8.267410  -9.846950   2.933960 -39.719900  31.088500  59.035400  29.832500   0.011755  -0.006632   9.925830   0.006863  -0.000857  32.027900   8.823010  13.780100  27.078400  -0.002213  -0.000374  18.955000  -0.007100  -0.001203  28.662300   2.214360   4.044360  39.808200  -0.005826  -0.004698  26.512300  -0.001678  -0.001440  28.129600   0.719794   1.346130  32.946500  -0.003078  -0.006047  21.942400  -0.003727  -0.007262  37.308000  -0.330660  -0.433888  55.963900  -0.000713  -0.000603  37.271900   0.000211   0.000974   2.685790  13.801700   5.433200   0.725358   0.401852   8.037470  -1.554790  -5.158320   3.497840  -0.000000   0.000000   0.000000   1.778050  12.018200  -4.440710  -0.347024   2.048760  -7.794950   0.324303  -4.697420   2.904680  -0.000000   0.000000   0.000000
  2.014740  89.496900   2.786950  -4.254600  -9.844710  -5.530450   0.642061   6.025390   1.854550   1.095620  12.068200   3.671480   1.329460  -0.976316   0.031234   2.184070  -1.976450   2.256670  -5.793300   0.698517  -1.023570 -69.389200  17.001700  -2.810850   0.040443   0.333295 -24.280800  17.409300 -14.974700   9.199660  41.402800  36.028700 -63.542400 -31.749100  -0.003328   0.007582 -10.874500  -0.004345   0.003331 -30.581300   5.026270  -8.433000 -25.324500  -0.009978  -0.001560 -17.727100  -0.003417   0.003807 -28.236300  -1.849610   3.438890 -34.179700  -0.000432  -0.003332 -22.763700  -0.009742  -0.003731 -28.191600  -1.846410   3.440610 -33.741700  -0.008177  -0.007708 -22.472000  -0.001590  -0.007110 -30.988900  -2.012480   3.346250 -46.571700  -0.009815  -0.008218 -31.016700   0.005180  -0.005862  11.730500   1.873710   5.952690  65.661900  16.155500  -2.964010  -5.469230  -1.794380  20.707500  -8.281430  -9.863140   2.916870 -39.679000  31.038800  59.056500  29.837200   0.011773  -0.006656   9.926280   0.006874  -0.000771  32.051700   8.832620  13.778900  27.099000  -0.002200  -0.000368  18.969300  -0.007105  -0.001196  28.660900   2.226890   4.066980  39.863400  -0.005823  -0.004709  26.549100  -0.001679  -0.001438  28.137500   0.730080   1.364970  33.005800  -0.003089  -0.006046  21.981800  -0.003721  -0.007271  37.345500  -0.340425  -0.446104  56.020200  -0.000698  -0.000614  37.309400   0.000233   0.000991   2.698190  13.800700   5.441150   0.726425   0.414598   8.036510  -1.592860  -5.162740   3.465560   0.000000   0.000000   0.000000   1.787890  12.026600  -4.440420  -0.346694   2.046610  -7.804050   0.319773  -4.706610   2.896790  -0.000000   0.000000   0.000000
  2.001710  89.496700   2.793830  -4.252240  -9.847810  -5.514700   0.640096   6.028800   1.854330   1.091540  12.075000   3.671260   1.329500  -0.980153   0.031175   2.184360  -1.984350   2.256730  -5.793010   0.689059  -1.015910 -69.419400  17.007800  -2.790640   0.012003   0.323452 -24.254200  17.395200 -14.944200   9.234900  41.392700  36.026300 -63.519500 -31.766200  -0.003287   0.007567 -10.883400  -0.004328   0.003326 -30.569500   5.003510  -8.399320 -25.312200  -0.009974  -0.001516 -17.718500  -0.003401   0.003847 -28.234700  -1.862680   3.463800 -34.147300  -0.000377  -0.003318 -22.742100  -0.009752  -0.003726 -28.189800  -1.859560   3.465470 -33.724600  -0.008135  -0.007670 -22.460600  -0.001588  -0.007072 -30.969100  -2.025830   3.371040 -46.543200  -0.009825  -0.008182 -30.997700   0.005165  -0.005838  11.745200   1.853640   5.963890  65.680000  16.194800  -2.962530  -5.472960  -1.846880  20.650800  -8.250630  -9.857700   2.941990 -39.617400  30.935000  59.014100  29.836900   0.011811  -0.006684   9.923850   0.006898  -0.000618  32.045600   8.843050  13.787600  27.096700  -0.002192  -0.000360  18.967700  -0.007104  -0.001194  28.659700   2.225840   4.064980  39.852400  -0.005824  -0.004729  26.541800  -0.001674  -0.001442  28.137500   0.724868   1.355020  33.004100  -0.003105  -0.006044  21.980600  -0.003707  -0.007291  37.362300  -0.344717  -0.451620  56.045400  -0.000673  -0.000622  37.326200   0.000264   0.001010   2.713020  13.819700   5.446540   0.725075   0.388826   8.038950  -1.626630  -5.144910   3.435940   0.000000   0.000000  -0.000000   1.799210  12.033300  -4.440600  -0.345325   2.048160  -7.822040   0.311851  -4.714410   2.891800  -0.000000   0.000000   0.000000
  1.985870  89.496600   2.800410  -4.250250  -9.855480  -5.496490   0.636471   6.034170   1.853590   1.084170  12.085600   3.670150   1.329530  -0.988420   0.031110   2.184900  -2.001370   2.257060  -5.789380   0.680948  -1.010010 -69.448200  17.010000  -2.774090  -0.019176   0.313091 -24.225100  17.383600 -14.910100   9.268430  41.382900  36.024800 -63.495600 -31.785400  -0.003238   0.007547 -10.892700  -0.004304   0.003320 -30.559100   4.979100  -8.362440 -25.300900  -0.009967  -0.001457 -17.710600  -0.003381   0.003898 -28.233000  -1.875850   3.488900 -34.115200  -0.000309  -0.003302 -22.720700  -0.009765  -0.003720 -28.188000  -1.872800   3.490530 -33.707400  -0.008080  -0.007621 -22.449200  -0.001585  -0.007023 -30.949600  -2.039310   3.396020 -46.515200  -0.009839  -0.008135 -30.979100   0.005146  -0.005807  11.756500   1.834050   5.971190  65.729800  16.220000  -2.948440  -5.487160  -1.977810  20.587600  -8.152630  -9.820750   2.990270 -39.563600  30.830000  58.944600  29.834500   0.011862  -0.006714   9.917250   0.006930  -0.000463  32.024700   8.848650  13.816600  27.080900  -0.002179  -0.000348  18.956600  -0.007102  -0.001190  28.654400   2.219130   4.053290  39.775300  -0.005826  -0.004754  26.490400  -0.001667  -0.001446  28.136800   0.710203   1.327850  32.991900  -0.003124  -0.006042  21.972600  -0.003688  -0.007315  37.368200  -0.346198  -0.453589  56.054400  -0.000641  -0.000633  37.332200   0.000306   0.001034   2.731650  13.845600   5.450930   0.721917   0.363049   8.046290  -1.663860  -5.127100   3.401380   0.000000   0.000000   0.000000   1.810260  12.042100  -4.441230  -0.341666   2.052120  -7.838660   0.301765  -4.723440   2.887540  -0.000000   0.000000   0.000000
  1.966220  89.496600   2.806500  -4.251800  -9.865700  -5.477170   0.632213   6.040590   1.852890   1.075500  12.098300   3.669100   1.329370  -0.998097   0.031054   2.185250  -2.020710   2.259530  -5.776120   0.678722  -1.009350 -69.477100  17.005900  -2.769230  -0.052120   0.305528 -24.182800  17.372700 -14.870000   9.293930  41.374900  36.019900 -63.468300 -31.797000  -0.003194   0.007536 -10.898500  -0.004267   0.003320 -30.553300   4.962960  -8.337720 -25.294700  -0.009952  -0.001384 -17.706200  -0.003364   0.003956 -28.231700  -1.884160   3.505000 -34.100500  -0.000236  -0.003285 -22.710900  -0.009775  -0.003711 -28.186900  -1.881170   3.506590 -33.707900  -0.008012  -0.007556 -22.449500  -0.001582  -0.006966 -30.940600  -2.047910   3.411710 -46.502400  -0.009859  -0.008080 -30.970600   0.005125  -0.005769  11.752600   1.821820   5.953560  65.804600  16.218000  -2.883280  -5.517640  -2.174410  20.531900  -7.985930  -9.678280   3.044700 -39.560100  30.810200  58.917900  29.827200   0.011922  -0.006742   9.912020   0.006964  -0.000372  31.909100   8.845010  13.890200  26.989400  -0.002152  -0.000331  18.892500  -0.007100  -0.001181  28.644200   2.207670   4.034160  39.529100  -0.005824  -0.004783  26.326400  -0.001664  -0.001447  28.112400   0.685322   1.282890  32.812700  -0.003143  -0.006043  21.853300  -0.003666  -0.007331  37.292900  -0.326588  -0.429039  55.941200  -0.000608  -0.000648  37.256800   0.000362   0.001064   2.756790  13.850100   5.452770   0.716861   0.383571   8.060190  -1.706220  -5.133340   3.358230   0.000000   0.000000  -0.000000   1.820120  12.053300  -4.451440  -0.333343   2.058780  -7.843920   0.290414  -4.735120   2.882890   0.000000   0.000000   0.000000
